<?xml version="1.0" encoding="UTF-8"?>
<svg version="1.1" xmlns="http://www.w3.org/2000/svg" width="1024" height="1024">
<path d="M0 0 C337.92 0 675.84 0 1024 0 C1024 337.92 1024 675.84 1024 1024 C686.08 1024 348.16 1024 0 1024 C0 686.08 0 348.16 0 0 Z " fill="#FEFEFE" transform="translate(0,0)"/>
<path d="M0 0 C0.85078125 0.68578125 1.7015625 1.3715625 2.578125 2.078125 C13.95425461 11.73710297 22.17427681 23.84837774 29 37 C29.47050781 37.89976562 29.94101562 38.79953125 30.42578125 39.7265625 C33.06339537 45.13244655 34.95646077 50.69095983 36.6875 56.4375 C36.89012451 57.10499268 37.09274902 57.77248535 37.30151367 58.46020508 C45.98585505 88.67243817 41.25020812 120.98328966 26.29136658 148.3139801 C23.84220451 152.63858533 21.2236887 156.80106288 18.44140625 160.91796875 C18.01156937 161.55829041 17.58173248 162.19861206 17.13887024 162.8583374 C15.76205161 164.90746215 14.38134579 166.95392492 13 169 C12.08150141 170.36333463 11.16304443 171.7266973 10.24462891 173.09008789 C7.39725891 177.31345055 4.54301297 181.53214026 1.6875 185.75 C1.18520874 186.49223816 0.68291748 187.23447632 0.16540527 187.99920654 C-7.52120609 199.35702161 -15.23178597 210.69779564 -23 222 C-23.9688024 223.41142237 -24.93755212 224.8228809 -25.90625 226.234375 C-32.79195867 236.2632789 -39.70511822 246.27294062 -46.66015625 256.25390625 C-47.32474854 257.20813477 -47.98934082 258.16236328 -48.67407227 259.14550781 C-50.05762631 261.13126502 -51.44222896 263.11629204 -52.82788086 265.10058594 C-56.18700499 269.91928955 -59.51853691 274.75211373 -62.78125 279.63671875 C-63.3680957 280.51118652 -63.95494141 281.3856543 -64.55957031 282.28662109 C-65.66041509 283.93152868 -66.75391614 285.5813825 -67.83886719 287.23681641 C-68.33032227 287.9694873 -68.82177734 288.7021582 -69.328125 289.45703125 C-69.7499707 290.09616455 -70.17181641 290.73529785 -70.60644531 291.39379883 C-72.21866385 293.25203039 -73.75265544 294.04544728 -76 295 C-81.83041201 287.98237809 -87.01588197 280.69929804 -92 273.0625 C-96.54989988 266.11768211 -101.18982475 259.28762268 -106.10693359 252.59692383 C-108.92815801 248.72674532 -111.62327318 244.77501246 -114.3125 240.8125 C-115.44124636 239.15614103 -116.57015523 237.49989279 -117.69921875 235.84375 C-118.25399902 235.0290625 -118.8087793 234.214375 -119.38037109 233.375 C-121.78582624 229.84767596 -124.20447409 226.32949226 -126.625 222.8125 C-127.07077393 222.16450439 -127.51654785 221.51650879 -127.97583008 220.84887695 C-128.86955525 219.54975401 -129.76335365 218.25068145 -130.65722656 216.95166016 C-133.39931496 212.9661593 -136.13939657 208.97927838 -138.87988281 204.99267578 C-141.59338615 201.04549959 -144.30787162 197.09900166 -147.02319336 193.15307617 C-148.39026338 191.16530648 -149.75572835 189.17644085 -151.12109375 187.1875 C-153.12719922 184.26600064 -155.14178517 181.35053693 -157.16015625 178.4375 C-191.44288268 128.85071814 -191.44288268 128.85071814 -192 100 C-192.01901367 99.29794434 -192.03802734 98.59588867 -192.05761719 97.87255859 C-192.88263357 64.31062174 -183.28667683 33.93557117 -160.09765625 9.1953125 C-159.05931641 8.10863281 -159.05931641 8.10863281 -158 7 C-157.19369141 6.09894531 -157.19369141 6.09894531 -156.37109375 5.1796875 C-115.93623761 -38.39672388 -43.82036351 -35.8980379 0 0 Z " fill="#008F2F" transform="translate(309,374)"/>
<path d="M0 0 C0.92039062 0.44085938 1.84078125 0.88171875 2.7890625 1.3359375 C9.97410663 4.99929803 15.98008522 9.66123765 22 15 C22.69867188 15.60328125 23.39734375 16.2065625 24.1171875 16.828125 C36.77804205 28.52289025 48.2919706 48.36045102 49.1328125 65.74609375 C49 68 49 68 48 69 C38.9771195 68.88114757 31.13770568 65.14261416 22.9375 61.75 C-20.9238919 43.72587456 -58.34480748 43.38580158 -102.3125 60.8984375 C-103.25791405 61.27400032 -103.25791405 61.27400032 -104.22242737 61.65715027 C-107.36128488 62.90537596 -110.49410772 64.16509416 -113.62084961 65.44360352 C-114.76561768 65.90436279 -115.91038574 66.36512207 -117.08984375 66.83984375 C-118.61919556 67.46427368 -118.61919556 67.46427368 -120.17944336 68.10131836 C-122.9900507 68.99682997 -125.0738665 69.26352466 -128 69 C-129 68 -129 68 -129.01953125 66.13671875 C-127.30017712 45.79643503 -115.55830917 25.17761962 -100 12 C-71.49678127 -10.68730461 -33.01382276 -16.1758272 0 0 Z " fill="#FDFEFD" transform="translate(274,382)"/>
<path d="M0 0 C1.12047981 -0.0049926 1.12047981 -0.0049926 2.26359558 -0.01008606 C3.85500472 -0.01516455 5.44642457 -0.0174941 7.0378418 -0.01733398 C9.43231872 -0.01948794 11.82630988 -0.03754104 14.22070312 -0.05664062 C30.89496203 -0.11964078 46.76637311 1.31970615 59.40234375 13.42578125 C68.45771246 24.38589993 70.62054316 36.35563986 69.66796875 50.16796875 C67.98160243 61.07975084 64.00477846 70.71115562 55.66796875 78.16796875 C44.568982 85.70915147 32.64238542 88.33778989 19.36328125 88.30078125 C18.21640335 88.30221634 18.21640335 88.30221634 17.0463562 88.30368042 C15.44464027 88.30435641 13.8429215 88.30254296 12.24121094 88.29833984 C9.77923553 88.29293862 7.31743888 88.29832708 4.85546875 88.3046875 C3.29557251 88.30402748 1.73567639 88.30274791 0.17578125 88.30078125 C-0.56268036 88.30280548 -1.30114197 88.30482971 -2.0619812 88.30691528 C-7.21704967 88.28295033 -7.21704967 88.28295033 -8.33203125 87.16796875 C-8.43248178 84.49546808 -8.46819774 81.84878294 -8.46142578 79.17578125 C-8.4631781 78.33843445 -8.46493042 77.50108765 -8.46673584 76.6383667 C-8.47115526 73.85654661 -8.46821605 71.07478954 -8.46484375 68.29296875 C-8.46551676 66.36865222 -8.46648677 64.44433577 -8.46774292 62.52001953 C-8.46922002 58.4814371 -8.46706496 54.44287675 -8.46240234 50.40429688 C-8.45670505 45.21528364 -8.45998399 40.02632212 -8.46597481 34.83731079 C-8.46958011 30.86205655 -8.46844198 26.88681466 -8.46584702 22.91156006 C-8.46517766 20.99770095 -8.46600647 19.08384073 -8.46832657 17.16998291 C-8.47085258 14.50001025 -8.46701323 11.83012255 -8.46142578 9.16015625 C-8.46345001 8.36115906 -8.46547424 7.56216187 -8.46755981 6.73895264 C-8.43867502 -0.67268049 -6.76722334 0.01041916 0 0 Z " fill="#018E2D" transform="translate(426.33203125,387.83203125)"/>
<path d="M0 0 C0.8381424 -0.00570007 1.67628479 -0.01140015 2.53982544 -0.01727295 C4.32373792 -0.02674611 6.10766807 -0.03326607 7.89160156 -0.03710938 C10.58691503 -0.04671149 13.28143166 -0.07766758 15.9765625 -0.109375 C29.52451801 -0.19365736 41.68116461 0.57517977 52.0078125 10.328125 C56.48852506 17.68929564 59.07934309 25.57353023 57.7578125 34.203125 C55.25404897 43.66888404 51.80397183 49.2815889 43.3671875 54.28515625 C42.83609375 54.58808594 42.305 54.89101563 41.7578125 55.203125 C44.55239112 60.65745608 47.53754567 65.91283366 50.86328125 71.05859375 C51.41016602 71.90574951 51.95705078 72.75290527 52.52050781 73.62573242 C53.63197285 75.33618963 54.75236491 77.04088086 55.88183594 78.73950195 C56.39649414 79.53187256 56.91115234 80.32424316 57.44140625 81.140625 C57.91118896 81.85089844 58.38097168 82.56117188 58.86499023 83.29296875 C59.7578125 85.203125 59.7578125 85.203125 58.7578125 88.203125 C55.55105779 88.4662318 52.34707584 88.6248054 49.1328125 88.765625 C48.22917969 88.84103516 47.32554687 88.91644531 46.39453125 88.99414062 C39.83291112 89.20966829 39.83291112 89.20966829 36.95068359 86.51123047 C35.3302245 84.14790923 34.02501098 81.77281529 32.7578125 79.203125 C32.33129395 78.37627197 31.90477539 77.54941895 31.46533203 76.69750977 C31.04364746 75.87436279 30.62196289 75.05121582 30.1875 74.203125 C29.7646875 73.37941406 29.341875 72.55570312 28.90625 71.70703125 C28.04933361 70.02211284 27.22412482 68.32073115 26.4296875 66.60546875 C25.05651184 64.01123569 23.95237625 62.16275574 21.7578125 60.203125 C17.7195581 59.16601311 13.91073921 59.03543161 9.7578125 59.203125 C9.76566772 60.46757446 9.76566772 60.46757446 9.77368164 61.75756836 C9.79069076 64.87540436 9.80324656 67.99321677 9.81274414 71.11108398 C9.81778307 72.46232886 9.82461427 73.81356826 9.83325195 75.16479492 C9.84533669 77.10332934 9.85051078 79.041903 9.85546875 80.98046875 C9.86332397 82.73218384 9.86332397 82.73218384 9.87133789 84.51928711 C9.7578125 87.203125 9.7578125 87.203125 8.7578125 88.203125 C7.41513837 88.28944374 6.06806928 88.31018973 4.72265625 88.30078125 C3.91376953 88.29755859 3.10488281 88.29433594 2.27148438 88.29101562 C1.42134766 88.28263672 0.57121094 88.27425781 -0.3046875 88.265625 C-1.15869141 88.26111328 -2.01269531 88.25660156 -2.89257812 88.25195312 C-5.00914413 88.24012873 -7.12567435 88.22219269 -9.2421875 88.203125 C-9.26531005 76.8770087 -9.28310214 65.55089797 -9.29399967 54.22476292 C-9.29922869 48.96615836 -9.30632668 43.7075699 -9.31762695 38.44897461 C-9.32845516 33.37859373 -9.33446419 28.30822838 -9.33706474 23.23783684 C-9.33891911 21.29885552 -9.34253995 19.35987509 -9.34791756 17.42090034 C-9.3551271 14.7149074 -9.35617848 12.00897944 -9.35571289 9.30297852 C-9.35930817 8.49305954 -9.36290344 7.68314056 -9.36660767 6.84867859 C-9.35185441 -1.02242569 -7.11117362 0.0371543 0 0 Z " fill="#028F2F" transform="translate(519.2421875,387.796875)"/>
<path d="M0 0 C10.5496875 -0.12375 10.5496875 -0.12375 21.3125 -0.25 C24.607948 -0.30462402 24.607948 -0.30462402 27.9699707 -0.36035156 C39.34745335 -0.47025186 48.50308318 -0.09065133 58.375 6.125 C64.73990214 13.0960833 67.34730308 21.06116049 67.2109375 30.34765625 C66.61112117 37.88979125 63.46590352 44.7260807 58 50 C55.71481139 51.44943718 53.38777396 52.71841042 51 54 C52.12029448 56.00276109 53.24515765 58.00262388 54.375 60 C54.72425537 60.6177832 55.07351074 61.23556641 55.43334961 61.87207031 C57.47335575 65.4430839 59.58115858 68.95434219 61.79296875 72.421875 C62.2533252 73.14375 62.71368164 73.865625 63.18798828 74.609375 C64.09723691 76.02541266 65.01349033 77.43697924 65.93701172 78.84375 C67.01733558 80.52584243 68.01708146 82.25919394 69 84 C68.67 84.66 68.34 85.32 68 86 C61.04295153 87.7808664 53.73135179 89.03278122 47 86 C40.94854189 79.82412585 31 65.8245177 31 57 C27.04 57 23.08 57 19 57 C19.00785522 58.26444946 19.00785522 58.26444946 19.01586914 59.55444336 C19.03287826 62.67227936 19.04543406 65.79009177 19.05493164 68.90795898 C19.05997057 70.25920386 19.06680177 71.61044326 19.07543945 72.96166992 C19.08752419 74.90020434 19.09269828 76.838778 19.09765625 78.77734375 C19.10551147 80.52905884 19.10551147 80.52905884 19.11352539 82.31616211 C19 85 19 85 18 86 C12.06 86 6.12 86 0 86 C0 57.62 0 29.24 0 0 Z " fill="#018E2C" transform="translate(418,497)"/>
<path d="M0 0 C17 0 17 0 20.57421875 2.796875 C21.69335938 4.671875 21.69335938 4.671875 22.6875 6.75 C23.5418757 8.22610449 24.40014208 9.69996198 25.26171875 11.171875 C25.69661621 11.95755859 26.13151367 12.74324219 26.57958984 13.55273438 C29.10075519 17.89652286 32.0767837 21.92094549 35 26 C41.0743186 34.61545597 47.03628192 43.30785394 53 52 C53.01030746 51.36328873 53.02061493 50.72657745 53.03123474 50.0705719 C53.13906331 43.46873202 53.25367961 36.86703522 53.37231445 30.26538086 C53.41573943 27.79861431 53.45740872 25.33181622 53.49731445 22.86499023 C53.55483445 19.32786534 53.61858075 15.79090034 53.68359375 12.25390625 C53.70030624 11.14350479 53.71701874 10.03310333 53.73423767 8.88905334 C53.75418289 7.86807053 53.77412811 6.84708771 53.79467773 5.79516602 C53.81022202 4.89137711 53.8257663 3.9875882 53.84178162 3.05641174 C54 1 54 1 55 0 C57.86267567 -0.07325168 60.700719 -0.09238205 63.5625 -0.0625 C64.36880859 -0.05798828 65.17511719 -0.05347656 66.00585938 -0.04882812 C68.00393756 -0.03700518 70.00197783 -0.01906914 72 0 C72.02312283 11.06534858 72.04091478 22.13069145 72.05181217 33.19605923 C72.05704113 38.33359566 72.06413901 43.47111563 72.07543945 48.60864258 C72.08626787 53.5623141 72.09227674 58.51596974 72.09487724 63.46965218 C72.09673157 65.36397616 72.10035234 67.25829924 72.10573006 69.1526165 C72.11293989 71.79634386 72.11399097 74.44000471 72.11352539 77.08374023 C72.11712067 77.87495773 72.12071594 78.66617523 72.12442017 79.48136902 C72.11405216 84.88594784 72.11405216 84.88594784 71 86 C65.30153615 87.23908458 59.60738685 87.98411409 54 86 C48.95198219 82.04920368 45.86402242 76.0937573 42.62988281 70.66552734 C39.86678625 66.14673041 36.75758425 61.87569848 33.6875 57.5625 C32.58604335 55.98130137 31.48575813 54.399286 30.38671875 52.81640625 C26.66546195 47.49025254 22.83697123 42.24313925 19 37 C18.98969254 37.59912704 18.97938507 38.19825409 18.96876526 38.8155365 C18.86093035 45.02810088 18.74631456 51.24051341 18.62768555 57.45288086 C18.58426261 59.77413773 18.54259316 62.09542808 18.50268555 64.41674805 C18.4451606 67.74538278 18.38141575 71.07384785 18.31640625 74.40234375 C18.29133751 75.96951393 18.29133751 75.96951393 18.26576233 77.56834412 C18.24581711 78.52926468 18.22587189 79.49018524 18.20532227 80.48022461 C18.18977798 81.33071884 18.1742337 82.18121307 18.15821838 83.05747986 C18 85 18 85 17 86 C11.39 86 5.78 86 0 86 C0 57.62 0 29.24 0 0 Z " fill="#008D2C" transform="translate(418,604)"/>
<path d="M0 0 C6.66384976 4.85649567 11.89671215 10.30049827 14.1875 18.3125 C11.96082235 18.98743341 9.73104023 19.65213044 7.5 20.3125 C5.63794922 20.869375 5.63794922 20.869375 3.73828125 21.4375 C-1.79172373 22.8002295 -1.79172373 22.8002295 -4.8125 22.3125 C-6.55078125 20.66796875 -6.55078125 20.66796875 -8.125 18.5 C-12.25496402 13.47105674 -15.84118818 11.8201596 -22.2265625 11.00390625 C-29.23600219 10.6458389 -35.22404553 12.2176539 -40.6015625 16.85546875 C-47.29261069 24.05740979 -48.34729036 31.26105749 -48.08984375 40.91015625 C-47.38493738 49.55766955 -44.33645643 55.52248866 -37.8125 61.3125 C-32.12284898 64.8138237 -26.32588168 65.25827871 -19.8125 64.3125 C-14.81391277 62.67430755 -10.31517015 60.59781676 -7.25 56.1875 C-5.74620874 53.34932848 -5.74620874 53.34932848 -4.8125 50.3125 C-5.44341553 50.28744385 -6.07433105 50.2623877 -6.72436523 50.23657227 C-9.56646825 50.12095863 -12.40821083 49.99807684 -15.25 49.875 C-16.24322266 49.83568359 -17.23644531 49.79636719 -18.25976562 49.75585938 C-19.20400391 49.71396484 -20.14824219 49.67207031 -21.12109375 49.62890625 C-21.99564209 49.59224854 -22.87019043 49.55559082 -23.77124023 49.51782227 C-25.8125 49.3125 -25.8125 49.3125 -26.8125 48.3125 C-26.91159302 45.98089945 -26.94220504 43.64620058 -26.9375 41.3125 C-26.94136719 39.394375 -26.94136719 39.394375 -26.9453125 37.4375 C-26.8125 34.3125 -26.8125 34.3125 -25.8125 33.3125 C-22.8671443 33.21139647 -19.9457244 33.17280721 -17 33.1796875 C-16.11594482 33.17873077 -15.23188965 33.17777405 -14.32104492 33.17678833 C-12.44807871 33.17610649 -10.57511014 33.17796107 -8.70214844 33.18212891 C-5.82481612 33.18747711 -2.94763992 33.18218407 -0.0703125 33.17578125 C1.74479201 33.17644203 3.55989643 33.17772319 5.375 33.1796875 C6.24165283 33.17766327 7.10830566 33.17563904 8.0012207 33.17355347 C14.07254991 33.19754991 14.07254991 33.19754991 15.1875 34.3125 C16.06286 46.91194401 15.30237456 57.98447783 7.1875 68.3125 C-0.97052642 77.09806692 -9.6787272 82.40701549 -21.83349609 82.86035156 C-35.72275663 82.94242322 -46.23484544 79.65380533 -56.8125 70.3125 C-66.0795982 60.88833233 -69.06854037 48.26692175 -69.0612793 35.47436523 C-68.88362223 24.23851436 -64.59630669 13.54109564 -56.8125 5.3125 C-40.86696601 -8.84865281 -18.33242938 -11.23095929 0 0 Z " fill="#018E2E" transform="translate(603.8125,501.6875)"/>
<path d="M0 0 C5.63756289 -0.09970521 11.2746 -0.17185967 16.9128418 -0.21972656 C18.82634434 -0.23970419 20.73978692 -0.26689599 22.65307617 -0.30175781 C48.08839206 -0.75323301 48.08839206 -0.75323301 58.27734375 8.93359375 C63.41821478 15.10030753 66.42332457 22.61122033 66.2734375 30.66015625 C65.28176075 39.14607589 61.48091295 46.45986474 55 52 C49.59528894 55.41768494 44.65505501 57.13022871 38.23828125 57.09765625 C37.12001953 57.09443359 36.00175781 57.09121094 34.84960938 57.08789062 C33.68236328 57.07951172 32.51511719 57.07113281 31.3125 57.0625 C30.13365234 57.05798828 28.95480469 57.05347656 27.74023438 57.04882812 C24.82677211 57.03703273 21.91341137 57.0205727 19 57 C19.00785522 58.26444946 19.00785522 58.26444946 19.01586914 59.55444336 C19.03287826 62.67227936 19.04543406 65.79009177 19.05493164 68.90795898 C19.05997057 70.25920386 19.06680177 71.61044326 19.07543945 72.96166992 C19.08752419 74.90020434 19.09269828 76.838778 19.09765625 78.77734375 C19.10551147 80.52905884 19.10551147 80.52905884 19.11352539 82.31616211 C19 85 19 85 18 86 C15.15664952 86.09986975 12.34302837 86.13877881 9.5 86.125 C8.70207031 86.12886719 7.90414062 86.13273438 7.08203125 86.13671875 C1.12660767 86.12660767 1.12660767 86.12660767 0 85 C-0.09511266 82.35261911 -0.12555635 79.73140999 -0.11352539 77.08374023 C-0.11367142 76.25454071 -0.11381744 75.42534119 -0.1139679 74.5710144 C-0.11326851 71.81684802 -0.10547493 69.06274839 -0.09765625 66.30859375 C-0.09579216 64.40430234 -0.09436822 62.50001045 -0.09336853 60.59571838 C-0.08954263 55.57332037 -0.07971173 50.55095108 -0.06866455 45.52856445 C-0.05845198 40.4077188 -0.05387124 35.28686852 -0.04882812 30.16601562 C-0.03808953 20.11066443 -0.02101224 10.0553346 0 0 Z " fill="#02902F" transform="translate(581,604)"/>
<path d="M0 0 C0.74886475 0.00523682 1.49772949 0.01047363 2.26928711 0.01586914 C3.36188843 0.01961548 3.36188843 0.01961548 4.4765625 0.0234375 C5.40718506 0.0325415 6.33780762 0.04164551 7.29663086 0.05102539 C11.72069336 0.08196289 11.72069336 0.08196289 16.23413086 0.11352539 C16.23413086 11.33352539 16.23413086 22.55352539 16.23413086 34.11352539 C28.11413086 34.11352539 39.99413086 34.11352539 52.23413086 34.11352539 C52.23413086 22.89352539 52.23413086 11.67352539 52.23413086 0.11352539 C55.18350586 0.09290039 58.13288086 0.07227539 61.17163086 0.05102539 C62.10225342 0.04192139 63.03287598 0.03281738 63.99169922 0.0234375 C64.7201001 0.02093994 65.44850098 0.01844238 66.19897461 0.01586914 C66.94783936 0.01063232 67.6967041 0.00539551 68.46826172 0 C70.23413086 0.11352539 70.23413086 0.11352539 71.23413086 1.11352539 C71.33454543 3.72502827 71.37030143 6.31010904 71.36352539 8.92211914 C71.36615387 10.14887863 71.36615387 10.14887863 71.36883545 11.40042114 C71.37325471 14.1173105 71.37031572 16.83413532 71.36694336 19.55102539 C71.36761638 21.43050143 71.36858638 23.30997738 71.36984253 25.18945312 C71.3713196 29.13387885 71.36916464 33.07828197 71.36450195 37.02270508 C71.35880466 42.09065042 71.36208362 47.15854281 71.36807442 52.22648621 C71.37167978 56.10909426 71.37054156 59.99168967 71.36794662 63.8742981 C71.36727729 65.74349982 71.36810602 67.61270267 71.37042618 69.48190308 C71.37295229 72.08961043 71.3691127 74.6972308 71.36352539 77.30493164 C71.36554962 78.08522736 71.36757385 78.86552307 71.36965942 79.66946411 C71.34839339 84.99926286 71.34839339 84.99926286 70.23413086 86.11352539 C68.90369461 86.21189749 67.56819742 86.24431131 66.23413086 86.24633789 C65.42975586 86.24762695 64.62538086 86.24891602 63.79663086 86.25024414 C62.95100586 86.24637695 62.10538086 86.24250977 61.23413086 86.23852539 C60.38850586 86.24239258 59.54288086 86.24625977 58.67163086 86.25024414 C57.86725586 86.24895508 57.06288086 86.24766602 56.23413086 86.24633789 C55.49163086 86.24520996 54.74913086 86.24408203 53.98413086 86.24291992 C52.23413086 86.11352539 52.23413086 86.11352539 51.23413086 85.11352539 C51.14570256 82.66548772 51.11877114 80.24507745 51.13647461 77.79711914 C51.13748169 77.14940552 51.13848877 76.50169189 51.13952637 75.83435059 C51.14477243 73.4065576 51.15873361 70.97878978 51.17163086 68.55102539 C51.20256836 60.41446289 51.20256836 60.41446289 51.23413086 52.11352539 C39.68413086 52.11352539 28.13413086 52.11352539 16.23413086 52.11352539 C16.23413086 63.33352539 16.23413086 74.55352539 16.23413086 86.11352539 C13.28475586 86.13415039 10.33538086 86.15477539 7.29663086 86.17602539 C5.90069702 86.1896814 5.90069702 86.1896814 4.4765625 86.20361328 C3.38396118 86.20735962 3.38396118 86.20735962 2.26928711 86.21118164 C1.52042236 86.21641846 0.77155762 86.22165527 0 86.22705078 C-1.76586914 86.11352539 -1.76586914 86.11352539 -2.76586914 85.11352539 C-2.86628371 82.50202251 -2.90203971 79.91694174 -2.89526367 77.30493164 C-2.89701599 76.48709198 -2.89876831 75.66925232 -2.90057373 74.82662964 C-2.90499299 72.10974029 -2.902054 69.39291546 -2.89868164 66.67602539 C-2.89935466 64.79654935 -2.90032467 62.9170734 -2.90158081 61.03759766 C-2.90305788 57.09317193 -2.90090293 53.14876881 -2.89624023 49.2043457 C-2.89054294 44.13640036 -2.8938219 39.06850797 -2.8998127 34.00056458 C-2.90341806 30.11795652 -2.90227984 26.23536111 -2.89968491 22.35275269 C-2.89901557 20.48355096 -2.8998443 18.61434811 -2.90216446 16.74514771 C-2.90469057 14.13744035 -2.90085098 11.52981998 -2.89526367 8.92211914 C-2.8972879 8.14182343 -2.89931213 7.36152771 -2.90139771 6.55758667 C-2.8759705 0.18489234 -2.8759705 0.18489234 0 0 Z " fill="#028E2D" transform="translate(635.765869140625,496.886474609375)"/>
<path d="M0 0 C7.26 0 14.52 0 22 0 C27.94360968 15.82400681 27.94360968 15.82400681 30.5078125 22.67651367 C31.20310295 24.5343507 31.89841587 26.39217932 32.59375 28.25 C32.94904785 29.19937943 33.3043457 30.14875885 33.67041016 31.12690735 C35.91698326 37.12454016 38.17798595 43.11652299 40.44934082 49.10481262 C41.94412772 53.04967484 43.43153797 56.9972949 44.91772461 60.94540405 C45.63919151 62.85666882 46.36396536 64.76668854 47.09204102 66.67544556 C48.11153557 69.34951767 49.1195173 72.0276651 50.125 74.70703125 C50.43256226 75.50524292 50.74012451 76.30345459 51.05700684 77.12585449 C53.11394736 82.65815793 53.11394736 82.65815793 52 86 C49.06097651 86.13481759 46.12810441 86.23399416 43.1875 86.3125 C42.35412109 86.35439453 41.52074219 86.39628906 40.66210938 86.43945312 C38.35415498 86.48579759 36.26704103 86.43568166 34 86 C29.89696576 82.01589429 29.41734404 75.19692815 28 70 C16.78 70 5.56 70 -6 70 C-6.66 72.97 -7.32 75.94 -8 79 C-8.99 81.31 -9.98 83.62 -11 86 C-17.27 86 -23.54 86 -30 86 C-29.2996159 81.09731128 -28.71456538 77.68445057 -27.08569336 73.21435547 C-26.69115463 72.1214621 -26.29661591 71.02856873 -25.89012146 69.90255737 C-25.46102982 68.73588531 -25.03193817 67.56921326 -24.58984375 66.3671875 C-24.14411514 65.13952667 -23.69838654 63.91186584 -23.239151 62.64700317 C-22.05316226 59.38135175 -20.85878739 56.11882723 -19.6628418 52.85681152 C-18.71057164 50.25497612 -17.76443891 47.65093133 -16.81860924 45.04674911 C-11.34560108 29.97941466 -5.74878388 14.96444331 0 0 Z " fill="#018E2D" transform="translate(675,604)"/>
<path d="M0 0 C1.17792114 -0.00315216 2.35584229 -0.00630432 3.56945801 -0.009552 C4.85171265 -0.00752777 6.13396729 -0.00550354 7.45507812 -0.00341797 C8.76085815 -0.00437469 10.06663818 -0.00533142 11.4119873 -0.00631714 C14.17945535 -0.0077938 16.94689116 -0.00564058 19.71435547 -0.00097656 C23.26895462 0.00472073 26.82347827 0.00144155 30.37807465 -0.00454903 C33.75791526 -0.00902294 37.13773536 -0.00589433 40.51757812 -0.00341797 C41.79983276 -0.0054422 43.0820874 -0.00746643 44.40319824 -0.009552 C46.17007996 -0.00482376 46.17007996 -0.00482376 47.97265625 0 C49.0155481 0.00079559 50.05843994 0.00159119 51.13293457 0.00241089 C53.48632812 0.12939453 53.48632812 0.12939453 54.48632812 1.12939453 C54.58607845 3.64075558 54.62514996 6.11842868 54.61132812 8.62939453 C54.61712891 9.68320312 54.61712891 9.68320312 54.62304688 10.75830078 C54.6129419 16.00278075 54.6129419 16.00278075 53.48632812 17.12939453 C50.45655009 17.21810726 47.4496579 17.24458804 44.41992188 17.22705078 C43.51129898 17.22563583 42.60267609 17.22422089 41.66651917 17.22276306 C38.75225592 17.21714646 35.83806832 17.20459118 32.92382812 17.19189453 C30.95312611 17.18688167 28.98242289 17.18231839 27.01171875 17.17822266 C22.16989254 17.16717164 17.32812317 17.14989591 12.48632812 17.12939453 C12.48632812 22.73939453 12.48632812 28.34939453 12.48632812 34.12939453 C15.21785156 34.11779297 17.949375 34.10619141 20.76367188 34.09423828 C23.39802942 34.08644811 26.03238569 34.08037112 28.66674805 34.07446289 C30.50301687 34.06942222 32.33928167 34.06258976 34.17553711 34.05395508 C36.80909214 34.04187781 39.44259429 34.03616372 42.07617188 34.03173828 C42.9022142 34.026577 43.72825653 34.02141571 44.57933044 34.01609802 C46.5486918 34.01590249 48.51794426 34.06735301 50.48632812 34.12939453 C52.24192754 35.88499395 51.61854732 38.16521895 51.62304688 40.50048828 C51.61917969 41.20302734 51.6153125 41.90556641 51.61132812 42.62939453 C51.61712891 43.68320312 51.61712891 43.68320312 51.62304688 44.75830078 C51.6129419 50.00278075 51.6129419 50.00278075 50.48632812 51.12939453 C47.67469433 51.21801445 44.88774557 51.24461808 42.07617188 51.22705078 C41.23413712 51.22563583 40.39210236 51.22422089 39.52455139 51.22276306 C36.82427478 51.21714716 34.12407985 51.20459202 31.42382812 51.19189453 C29.59765744 51.18688158 27.77148547 51.18231832 25.9453125 51.17822266 C21.45892727 51.16802169 16.97271958 51.14844952 12.48632812 51.12939453 C12.48632812 57.06939453 12.48632812 63.00939453 12.48632812 69.12939453 C13.753396 69.12415771 15.02046387 69.1189209 16.32592773 69.11352539 C21.00918883 69.09547939 25.69244683 69.083964 30.37573242 69.07446289 C32.40601111 69.06942175 34.43628615 69.06258896 36.46655273 69.05395508 C39.37810159 69.04187986 42.28960262 69.03616419 45.20117188 69.03173828 C46.11470932 69.026577 47.02824677 69.02141571 47.96946716 69.01609802 C50.1420824 69.01590285 52.31460108 69.06727649 54.48632812 69.12939453 C56.30748815 70.95055456 55.61867892 73.43611217 55.62304688 75.85595703 C55.61917969 76.60619141 55.6153125 77.35642578 55.61132812 78.12939453 C55.61712891 79.25474609 55.61712891 79.25474609 55.62304688 80.40283203 C55.61293866 86.002784 55.61293866 86.002784 54.48632812 87.12939453 C52.61997025 87.22850014 50.74984618 87.25738714 48.88085938 87.25878906 C47.68291748 87.26194122 46.48497559 87.26509338 45.25073242 87.26834106 C43.946604 87.26631683 42.64247559 87.2642926 41.29882812 87.26220703 C39.95743797 87.26288013 38.61604794 87.26385021 37.2746582 87.2651062 C34.46011191 87.26658289 31.6455973 87.26442957 28.83105469 87.25976562 C25.21592182 87.25406834 21.60086318 87.2573475 17.98573303 87.26333809 C15.21487871 87.2669445 12.4440421 87.26580475 9.67318726 87.2632103 C7.68943229 87.26221486 5.70567665 87.26526194 3.72192383 87.26834106 C2.52398193 87.2651889 1.32604004 87.26203674 0.09179688 87.25878906 C-0.96885986 87.25799347 -2.0295166 87.25719788 -3.12231445 87.25637817 C-5.51367188 87.12939453 -5.51367188 87.12939453 -6.51367188 86.12939453 C-6.61410459 83.48739392 -6.64984037 80.87150863 -6.64306641 78.22900391 C-6.64481873 77.40141068 -6.64657104 76.57381744 -6.64837646 75.72114563 C-6.65279581 72.97179091 -6.64985671 70.22249996 -6.64648438 67.47314453 C-6.64715739 65.57124825 -6.6481274 63.66935204 -6.64938354 61.76745605 C-6.65086063 57.77595198 -6.64870562 53.78447024 -6.64404297 49.79296875 C-6.63834568 44.66448947 -6.64162462 39.53606251 -6.64761543 34.40758514 C-6.65122076 30.478654 -6.65008259 26.54973535 -6.64748764 22.62080383 C-6.64681829 20.72927342 -6.64764706 18.83774188 -6.64996719 16.94621277 C-6.65249326 14.30737277 -6.64865379 11.66861872 -6.64306641 9.02978516 C-6.64509064 8.2401387 -6.64711487 7.45049225 -6.64920044 6.63691711 C-6.62386009 0.21037916 -6.32772988 0.00482725 0 0 Z " fill="#008E2D" transform="translate(725.513671875,388.87060546875)"/>
<path d="M0 0 C1.01037827 0.00222061 2.02075653 0.00444122 3.06175232 0.00672913 C4.77341331 0.00684242 4.77341331 0.00684242 6.51965332 0.00695801 C7.76129745 0.01211929 9.00294159 0.01728058 10.2822113 0.02259827 C12.17785072 0.02472069 12.17785072 0.02472069 14.11178589 0.02688599 C17.47705394 0.0315487 20.84225495 0.04053972 24.20750427 0.05158997 C27.63930175 0.06180606 31.07110614 0.06638403 34.50291443 0.07142639 C41.2405633 0.08248071 47.9781803 0.09923742 54.71580505 0.12025452 C54.74265184 2.76615466 54.76256862 5.41178547 54.77830505 8.05775452 C54.78668396 8.81250061 54.79506287 9.5672467 54.80369568 10.34486389 C54.81232946 12.27019765 54.76804838 14.19561033 54.71580505 16.12025452 C53.71580505 17.12025452 53.71580505 17.12025452 50.02220154 17.23377991 C48.37709213 17.23362075 46.73197774 17.2279244 45.0868988 17.21791077 C43.7905526 17.21578835 43.7905526 17.21578835 42.46801758 17.21362305 C39.69641213 17.2080069 36.92488625 17.19545171 34.15330505 17.18275452 C32.27895726 17.17774159 30.4046082 17.17317833 28.53025818 17.16908264 C23.92538484 17.15888133 19.32068445 17.13930919 14.71580505 17.12025452 C14.71580505 22.73025452 14.71580505 28.34025452 14.71580505 34.12025452 C17.30295349 34.10865295 19.89010193 34.09705139 22.5556488 34.08509827 C25.05100888 34.0773079 27.54636763 34.07123102 30.04173279 34.06532288 C31.78099673 34.06028247 33.52025642 34.05345021 35.25950623 34.04481506 C37.75406442 34.0327366 40.24856679 34.02702343 42.7431488 34.02259827 C43.52544357 34.01743698 44.30773834 34.0122757 45.11373901 34.00695801 C46.9814762 34.00676226 48.8490971 34.05825757 50.71580505 34.12025452 C52.47140447 35.87585394 51.84802425 38.15607893 51.8525238 40.49134827 C51.84865662 41.19388733 51.84478943 41.89642639 51.84080505 42.62025452 C51.84660583 43.67406311 51.84660583 43.67406311 51.8525238 44.74916077 C51.84241883 49.99364074 51.84241883 49.99364074 50.71580505 51.12025452 C48.04954475 51.20880612 45.40933391 51.23550125 42.7431488 51.21791077 C41.94550613 51.21649582 41.14786346 51.21508087 40.3260498 51.21362305 C37.7684307 51.20800768 35.21089788 51.19545264 32.65330505 51.18275452 C30.92348861 51.17774149 29.19367079 51.17317824 27.46385193 51.16908264 C23.21444267 51.15888243 18.96522089 51.13931019 14.71580505 51.12025452 C14.71580505 56.73025452 14.71580505 62.34025452 14.71580505 68.12025452 C18.92137146 68.10285217 18.92137146 68.10285217 23.2118988 68.08509827 C25.91575507 68.07730818 28.61961011 68.07123115 31.32347107 68.06532288 C33.20824235 68.06028208 35.0930097 68.05344953 36.97776794 68.04481506 C39.68082141 68.03273835 42.38382336 68.02702383 45.0868988 68.02259827 C45.93481491 68.01743698 46.78273102 68.0122757 47.65634155 68.00695801 C49.67651574 68.00676257 51.69658439 68.05819241 53.71580505 68.12025452 C55.53696508 69.94141454 54.84815585 72.42697216 54.8525238 74.84681702 C54.84865662 75.59705139 54.84478943 76.34728577 54.84080505 77.12025452 C54.84660583 78.24560608 54.84660583 78.24560608 54.8525238 79.39369202 C54.84241559 84.99364398 54.84241559 84.99364398 53.71580505 86.12025452 C51.9719797 86.21913244 50.22414962 86.24824484 48.4775238 86.24964905 C47.35966492 86.25280121 46.24180603 86.25595337 45.09007263 86.25920105 C43.87343933 86.25717682 42.65680603 86.25515259 41.40330505 86.25306702 C40.16411316 86.25402374 38.92492126 86.25498047 37.6481781 86.25596619 C35.02192225 86.25664826 32.39575872 86.25528989 29.76951599 86.25062561 C26.39651792 86.24492832 23.0235994 86.24820754 19.65060425 86.25419807 C16.44316829 86.25867222 13.23574205 86.25554334 10.02830505 86.25306702 C8.81167175 86.25509125 7.59503845 86.25711548 6.34153748 86.25920105 C4.66474915 86.25447281 4.66474915 86.25447281 2.9540863 86.24964905 C1.96448914 86.24885345 0.97489197 86.24805786 -0.04469299 86.24723816 C-2.28419495 86.12025452 -2.28419495 86.12025452 -3.28419495 85.12025452 C-3.38460952 82.50875164 -3.42036551 79.92367087 -3.41358948 77.31166077 C-3.4153418 76.49382111 -3.41709412 75.67598145 -3.41889954 74.83335876 C-3.42331879 72.11646941 -3.42037981 69.39964459 -3.41700745 66.68275452 C-3.41768046 64.80327848 -3.41865047 62.92380252 -3.41990662 61.04432678 C-3.42138369 57.09990106 -3.41922873 53.15549793 -3.41456604 49.21107483 C-3.40886875 44.14312949 -3.4121477 39.0752371 -3.4181385 34.0072937 C-3.42174386 30.12468564 -3.42060565 26.24209024 -3.41801071 22.35948181 C-3.41734137 20.49028009 -3.4181701 18.62107723 -3.42049026 16.75187683 C-3.42301638 14.14416948 -3.41917679 11.5365491 -3.41358948 8.92884827 C-3.41561371 8.14855255 -3.41763794 7.36825684 -3.41972351 6.5643158 C-3.39424472 0.17869458 -3.39424472 0.17869458 0 0 Z " fill="#018E2D" transform="translate(511.28419494628906,603.8797454833984)"/>
<path d="M0 0 C0.95197266 -0.01611328 1.90394531 -0.03222656 2.88476562 -0.04882812 C16.89425795 -0.05836488 27.84414999 5.22970481 37.953125 14.7421875 C53.79040143 31.12729425 59.00270288 50.30132468 58.640625 72.55078125 C58.4375 76.3125 58.4375 76.3125 57.4375 77.3125 C38.54774959 76.57172547 22.34482911 65.08497641 9.4375 52.3125 C8.75945312 51.69503906 8.08140625 51.07757812 7.3828125 50.44140625 C-4.30676745 39.60906216 -11.92533896 22.89903113 -14.5625 7.3125 C-14.34765625 4.49609375 -14.34765625 4.49609375 -13.5625 2.3125 C-9.17391774 -0.6132215 -5.16339428 -0.01699603 0 0 Z " fill="#FDFEFD" transform="translate(159.5625,476.6875)"/>
<path d="M0 0 C1.40183936 4.56473942 0.45061525 8.04425358 -1 12.4375 C-1.22856689 13.13979736 -1.45713379 13.84209473 -1.69262695 14.56567383 C-9.7658997 38.44675334 -25.74218164 56.62420121 -48 68.3125 C-64.4420736 76.12958147 -64.4420736 76.12958147 -72 74 C-72.45527925 61.54305382 -72.10343102 50.89566066 -68 39 C-67.72285156 38.113125 -67.44570312 37.22625 -67.16015625 36.3125 C-62.0826337 21.71169783 -50.78663442 8.81269362 -37 2 C-25.54200038 -3.39397058 -12.00625919 -3.96507899 0 0 Z " fill="#FDFEFD" transform="translate(322,479)"/>
<path d="M0 0 C2.93902349 -0.13481759 5.87189559 -0.23399416 8.8125 -0.3125 C10.06256836 -0.3753418 10.06256836 -0.3753418 11.33789062 -0.43945312 C12.14033203 -0.45556641 12.94277344 -0.47167969 13.76953125 -0.48828125 C14.50792236 -0.51446533 15.24631348 -0.54064941 16.00708008 -0.56762695 C18 0 18 0 19.49525452 2.17396545 C21.00732624 5.01375927 22.06584916 7.72955555 23.06884766 10.78417969 C23.44578766 11.9217572 23.82272766 13.05933472 24.21109009 14.23138428 C24.60807098 15.44924622 25.00505188 16.66710815 25.4140625 17.921875 C25.83275001 19.19049003 26.25206104 20.45889942 26.67196655 21.72711182 C27.77156892 25.05242464 28.86444864 28.3799037 29.9553833 31.70806885 C31.49808208 36.41237908 33.04671629 41.11473019 34.59945679 45.81573486 C35.42518824 48.31754277 36.24771082 50.82041238 37.06680298 53.32440186 C37.43743866 54.44937073 37.80807434 55.5743396 38.18994141 56.73339844 C38.51620514 57.72869568 38.84246887 58.72399292 39.17861938 59.74945068 C39.79846781 61.93907417 39.79846781 61.93907417 41 63 C41.19156677 62.40024353 41.38313354 61.80048706 41.58050537 61.18255615 C43.59150468 54.88704043 45.6035631 48.59186389 47.61621094 42.296875 C48.36517542 39.95386123 49.1138783 37.61076383 49.86230469 35.26757812 C50.94395714 31.88128485 52.0265795 28.49530292 53.109375 25.109375 C53.43871033 24.07762146 53.76804565 23.04586792 54.10736084 21.98284912 C55.06607481 18.98675482 56.03075489 15.9927036 57 13 C57.36194458 11.88210083 57.72388916 10.76420166 58.09680176 9.61242676 C58.45447632 8.52119507 58.81215088 7.42996338 59.18066406 6.30566406 C59.50520569 5.31278381 59.82974731 4.31990356 60.16412354 3.29693604 C61 1 61 1 62 0 C63.41570123 -0.08651611 64.835595 -0.10704904 66.25390625 -0.09765625 C67.53491211 -0.09282227 67.53491211 -0.09282227 68.84179688 -0.08789062 C70.18854492 -0.07532227 70.18854492 -0.07532227 71.5625 -0.0625 C72.46419922 -0.05798828 73.36589844 -0.05347656 74.29492188 -0.04882812 C76.53001314 -0.03700225 78.76497437 -0.0205222 81 0 C82.10057036 3.30171107 81.96378989 3.83488331 80.86694336 6.96020508 C80.59123505 7.75958496 80.31552673 8.55896484 80.03146362 9.38256836 C79.72072906 10.25276611 79.40999451 11.12296387 79.08984375 12.01953125 C78.77089142 12.93444336 78.45193909 13.84935547 78.12332153 14.79199219 C77.0707177 17.80219687 76.00454781 20.80738794 74.9375 23.8125 C74.20912491 25.88290572 73.48118236 27.95346366 72.75366211 30.02416992 C67.95152169 43.6545117 63.04757603 57.24804729 58.0625 70.8125 C57.76036591 71.63585846 57.45823181 72.45921692 57.14694214 73.30752563 C56.30082572 75.60872938 55.45031625 77.90824518 54.59765625 80.20703125 C54.3473465 80.88709229 54.09703674 81.56715332 53.83914185 82.26782227 C52.11628358 86.88371642 52.11628358 86.88371642 51 88 C49.43827255 88.08685603 47.87270656 88.10702219 46.30859375 88.09765625 C45.36435547 88.09443359 44.42011719 88.09121094 43.44726562 88.08789062 C42.45404297 88.07951172 41.46082031 88.07113281 40.4375 88.0625 C39.44041016 88.05798828 38.44332031 88.05347656 37.41601562 88.04882812 C34.94395151 88.03700007 32.47200482 88.02051849 30 88 C26.86569241 82.04004692 24.44983447 76.05887717 22.2421875 69.703125 C21.72446777 68.23383545 21.72446777 68.23383545 21.19628906 66.73486328 C20.08407378 63.5750132 18.97921801 60.4126527 17.875 57.25 C16.73364545 53.99434897 15.59098327 50.7391594 14.44802856 47.48406982 C13.69308488 45.33393404 12.93874795 43.18358511 12.18502808 41.03302002 C10.04030804 34.92279614 7.86059574 28.82753782 5.625 22.75 C5.14597445 21.44108865 4.66696947 20.13216977 4.18798828 18.82324219 C3.33543768 16.50306171 2.47488651 14.18579965 1.60498047 11.87207031 C1.23775879 10.86756836 0.87053711 9.86306641 0.4921875 8.828125 C0.17620605 7.9815332 -0.13977539 7.13494141 -0.46533203 6.26269531 C-1.05370689 3.77271442 -0.83498023 2.39017387 0 0 Z " fill="#028E2E" transform="translate(626,388)"/>
<path d="M0 0 C0.65202896 -0.00175232 1.30405792 -0.00350464 1.97584534 -0.00531006 C4.14082465 -0.00972751 6.30572291 -0.00679098 8.47070312 -0.00341797 C9.96903499 -0.00409104 11.46736675 -0.00506109 12.96569824 -0.00631714 C16.10979245 -0.00779397 19.2538583 -0.00564005 22.39794922 -0.00097656 C26.43681851 0.00472073 30.47562137 0.00144164 34.51448822 -0.00454903 C37.60960393 -0.00815505 40.70470377 -0.00701586 43.79981995 -0.00442123 C45.28943388 -0.00375208 46.77904923 -0.00457999 48.2686615 -0.00690079 C50.34711548 -0.009428 52.42546044 -0.0055858 54.50390625 0 C56.28142273 0.00119339 56.28142273 0.00119339 58.09484863 0.00241089 C60.75195312 0.12939453 60.75195312 0.12939453 61.75195312 1.12939453 C61.85170345 3.64075558 61.89077496 6.11842868 61.87695312 8.62939453 C61.88082031 9.33193359 61.8846875 10.03447266 61.88867188 10.75830078 C61.8785669 16.00278075 61.8785669 16.00278075 60.75195312 17.12939453 C58.97124066 17.21665676 57.18712172 17.23638494 55.40429688 17.22705078 C54.32470703 17.22382812 53.24511719 17.22060547 52.1328125 17.21728516 C50.99650391 17.20890625 49.86019531 17.20052734 48.68945312 17.19189453 C47.54927734 17.18738281 46.40910156 17.18287109 45.234375 17.17822266 C42.40684961 17.16639201 39.57942673 17.14990863 36.75195312 17.12939453 C36.75417374 17.9790831 36.75639435 18.82877167 36.75868225 19.70420837 C36.77868326 27.69476178 36.79392628 35.68530684 36.8037653 43.67587948 C36.80899359 47.78433738 36.81609025 51.89277467 36.82739258 56.0012207 C36.83822338 59.96286282 36.84423037 63.92448505 36.84683037 67.88614082 C36.84868427 69.40087764 36.85230422 70.91561332 36.85768318 72.43034172 C36.86489619 74.54481266 36.86594396 76.65920047 36.86547852 78.77368164 C36.86769913 79.97947372 36.86991974 81.18526581 36.87220764 82.42759705 C36.75195312 85.12939453 36.75195312 85.12939453 35.75195312 86.12939453 C32.90860265 86.22926428 30.09498149 86.26817334 27.25195312 86.25439453 C26.05505859 86.26019531 26.05505859 86.26019531 24.83398438 86.26611328 C18.8785608 86.25600221 18.8785608 86.25600221 17.75195312 85.12939453 C17.65773572 83.01258136 17.63452551 80.89258695 17.63842773 78.77368164 C17.63828171 78.11029282 17.63813568 77.44690399 17.63798523 76.76341248 C17.63868432 74.56115498 17.64647648 72.35898108 17.65429688 70.15673828 C17.65616107 68.63359117 17.65758497 67.11044346 17.65858459 65.58729553 C17.66240966 61.57101802 17.67223984 57.55477646 17.68328857 53.53851318 C17.69350294 49.44316087 17.69808227 45.34780277 17.703125 41.25244141 C17.71386213 33.21140925 17.73093841 25.17040636 17.75195312 17.12939453 C16.66926147 17.13724976 16.66926147 17.13724976 15.56469727 17.14526367 C12.31462464 17.16596811 9.06456584 17.17903371 5.81445312 17.19189453 C4.10999023 17.20446289 4.10999023 17.20446289 2.37109375 17.21728516 C1.29150391 17.22050781 0.21191406 17.22373047 -0.90039062 17.22705078 C-2.40073853 17.23490601 -2.40073853 17.23490601 -3.93139648 17.24291992 C-6.24804688 17.12939453 -6.24804688 17.12939453 -7.24804688 16.12939453 C-7.3477972 13.61803349 -7.38686871 11.14036038 -7.37304688 8.62939453 C-7.37691406 7.92685547 -7.38078125 7.22431641 -7.38476562 6.50048828 C-7.37168351 -0.28912709 -6.59130753 0.00442528 0 0 Z " fill="#009030" transform="translate(726.248046875,496.87060546875)"/>
<path d="M0 0 C5.94 0 11.88 0 18 0 C18 22.77 18 45.54 18 69 C29.88 69 41.76 69 54 69 C54 74.28 54 79.56 54 85 C52.34591544 86.65408456 50.40446108 86.12742355 48.12890625 86.12939453 C46.57224243 86.13412277 46.57224243 86.13412277 44.98413086 86.13894653 C43.29042358 86.13591019 43.29042358 86.13591019 41.5625 86.1328125 C39.83688843 86.13424759 39.83688843 86.13424759 38.07641602 86.13571167 C35.63850856 86.13639369 33.2005993 86.1345379 30.76269531 86.13037109 C27.01623482 86.12502317 23.26989423 86.13031539 19.5234375 86.13671875 C17.16145807 86.13605797 14.79947871 86.13477682 12.4375 86.1328125 C11.30836182 86.13483673 10.17922363 86.13686096 9.01586914 86.13894653 C7.45920532 86.13421829 7.45920532 86.13421829 5.87109375 86.12939453 C4.95255615 86.12859894 4.03401855 86.12780334 3.08764648 86.12698364 C1 86 1 86 0 85 C-0.09511266 82.35261911 -0.12555635 79.73140999 -0.11352539 77.08374023 C-0.11367142 76.25454071 -0.11381744 75.42534119 -0.1139679 74.5710144 C-0.11326851 71.81684802 -0.10547493 69.06274839 -0.09765625 66.30859375 C-0.09579216 64.40430234 -0.09436822 62.50001045 -0.09336853 60.59571838 C-0.08954263 55.57332037 -0.07971173 50.55095108 -0.06866455 45.52856445 C-0.05845198 40.4077188 -0.05387124 35.28686852 -0.04882812 30.16601562 C-0.03808952 20.1106624 -0.02049215 10.05533808 0 0 Z " fill="#008D2B" transform="translate(740,604)"/>
<path d="M0 0 C5.31987987 4.29947187 10.69924649 9.50700932 11.8125 16.46484375 C12.53453006 25.29268294 11.63853989 32.1777025 6.0625 39.21484375 C1.92359747 43.71320432 -2.98390477 46.87402516 -9.1875 47.46484375 C-10.17363281 47.55958984 -10.17363281 47.55958984 -11.1796875 47.65625 C-18.92119291 48.07145185 -24.90412441 45.44348306 -31 40.77734375 C-36.69105107 35.45687275 -38.41244817 29.56830451 -38.6875 21.90234375 C-38.40382144 14.0417024 -36.14761487 9.3643432 -30.875 3.65234375 C-22.82130773 -3.7584067 -9.72687593 -5.89062961 0 0 Z " fill="#FDFEFD" transform="translate(247.1875,444.53515625)"/>
<path d="M0 0 C24.94646681 0 24.94646681 0 32.3046875 5.82421875 C37.84830323 12.40209115 40.65625452 18.97989629 40.27734375 27.6796875 C39.39100312 35.09498798 37.1622326 40.53171811 32.3046875 46.2109375 C21.58850473 54.52960141 14.20778614 52 0 52 C0 34.84 0 17.68 0 0 Z " fill="#FDFEFD" transform="translate(437,406)"/>
<path d="M0 0 C3.14581423 -0.02888514 6.29159469 -0.04675923 9.4375 -0.0625 C10.33533203 -0.07087891 11.23316406 -0.07925781 12.15820312 -0.08789062 C13.01220703 -0.09111328 13.86621094 -0.09433594 14.74609375 -0.09765625 C15.93223267 -0.10551147 15.93223267 -0.10551147 17.14233398 -0.11352539 C19 0 19 0 20 1 C20.10041457 3.61150288 20.13617057 6.19658365 20.12939453 8.80859375 C20.13114685 9.62643341 20.13289917 10.44427307 20.13470459 11.28689575 C20.13912385 14.0037851 20.13618486 16.72060993 20.1328125 19.4375 C20.13348552 21.31697604 20.13445553 23.19645199 20.13571167 25.07592773 C20.13718874 29.02035346 20.13503379 32.96475658 20.13037109 36.90917969 C20.1246738 41.97712503 20.12795276 47.04501742 20.13394356 52.11296082 C20.13754892 55.99556887 20.1364107 59.87816428 20.13381577 63.76077271 C20.13314643 65.62997443 20.13397516 67.49917728 20.13629532 69.36837769 C20.13882143 71.97608504 20.13498184 74.58370541 20.12939453 77.19140625 C20.13141876 77.97170197 20.13344299 78.75199768 20.13552856 79.55593872 C20.11426253 84.88573747 20.11426253 84.88573747 19 86 C17.66956375 86.0983721 16.33406656 86.13078592 15 86.1328125 C14.195625 86.13410156 13.39125 86.13539063 12.5625 86.13671875 C11.716875 86.13285156 10.87125 86.12898437 10 86.125 C9.154375 86.12886719 8.30875 86.13273438 7.4375 86.13671875 C6.633125 86.13542969 5.82875 86.13414062 5 86.1328125 C4.2575 86.13168457 3.515 86.13055664 2.75 86.12939453 C1 86 1 86 0 85 C-0.09511266 82.35261911 -0.12555635 79.73140999 -0.11352539 77.08374023 C-0.11367142 76.25454071 -0.11381744 75.42534119 -0.1139679 74.5710144 C-0.11326851 71.81684802 -0.10547493 69.06274839 -0.09765625 66.30859375 C-0.09579216 64.40430234 -0.09436822 62.50001045 -0.09336853 60.59571838 C-0.08954263 55.57332037 -0.07971173 50.55095108 -0.06866455 45.52856445 C-0.05845198 40.4077188 -0.05387124 35.28686852 -0.04882812 30.16601562 C-0.03808953 20.11066443 -0.02101224 10.0553346 0 0 Z " fill="#058F30" transform="translate(501,497)"/>
<path d="M0 0 C0.79792969 0.00386719 1.59585938 0.00773437 2.41796875 0.01171875 C3.21589844 0.00785156 4.01382813 0.00398438 4.8359375 0 C10.79136108 0.01011108 10.79136108 0.01011108 11.91796875 1.13671875 C12.01841928 3.80921942 12.05413524 6.45590456 12.04736328 9.12890625 C12.0491156 9.96625305 12.05086792 10.80359985 12.05267334 11.6663208 C12.05709276 14.44814089 12.05415355 17.22989796 12.05078125 20.01171875 C12.05145426 21.93603528 12.05242427 23.86035173 12.05368042 25.78466797 C12.05515752 29.8232504 12.05300246 33.86181075 12.04833984 37.90039062 C12.04264255 43.08940386 12.04592149 48.27836538 12.05191231 53.46737671 C12.05551761 57.44263095 12.05437948 61.41787284 12.05178452 65.39312744 C12.05111516 67.30698655 12.05194397 69.22084677 12.05426407 71.13470459 C12.05679008 73.80467725 12.05295073 76.47456495 12.04736328 79.14453125 C12.04938751 79.94352844 12.05141174 80.74252563 12.05349731 81.56573486 C12.03223125 87.02245625 12.03223125 87.02245625 10.91796875 88.13671875 C8.07461827 88.2365885 5.26099712 88.27549756 2.41796875 88.26171875 C1.62003906 88.26558594 0.82210937 88.26945312 0 88.2734375 C-5.95542358 88.26332642 -5.95542358 88.26332642 -7.08203125 87.13671875 C-7.18248178 84.46421808 -7.21819774 81.81753294 -7.21142578 79.14453125 C-7.2131781 78.30718445 -7.21493042 77.46983765 -7.21673584 76.6071167 C-7.22115526 73.82529661 -7.21821605 71.04353954 -7.21484375 68.26171875 C-7.21551676 66.33740222 -7.21648677 64.41308577 -7.21774292 62.48876953 C-7.21922002 58.4501871 -7.21706496 54.41162675 -7.21240234 50.37304688 C-7.20670505 45.18403364 -7.20998399 39.99507212 -7.21597481 34.80606079 C-7.21958011 30.83080655 -7.21844198 26.85556466 -7.21584702 22.88031006 C-7.21517766 20.96645095 -7.21600647 19.05259073 -7.21832657 17.13873291 C-7.22085258 14.46876025 -7.21701323 11.79887255 -7.21142578 9.12890625 C-7.21345001 8.32990906 -7.21547424 7.53091187 -7.21755981 6.70770264 C-7.19122443 -0.04976856 -6.74189395 0.01144634 0 0 Z " fill="#008D2C" transform="translate(600.08203125,387.86328125)"/>
<path d="M0 0 C3.17625 -0.0825 6.3525 -0.165 9.625 -0.25 C10.6145166 -0.28641602 11.6040332 -0.32283203 12.62353516 -0.36035156 C18.25795762 -0.43096692 21.59081997 0.13327429 26 4 C28.68408645 8.02612967 28.80610406 11.26816918 28 16 C26.07643127 19.57339883 23.9117746 21.69607513 20 23 C18.44578271 23.08106686 16.88832973 23.10756898 15.33203125 23.09765625 C14.52741455 23.09515869 13.72279785 23.09266113 12.89379883 23.09008789 C11.36855591 23.07643188 11.36855591 23.07643188 9.8125 23.0625 C4.9553125 23.0315625 4.9553125 23.0315625 0 23 C0 15.41 0 7.82 0 0 Z " fill="#FDFEFD" transform="translate(437,514)"/>
<path d="M0 0 C3.01125 -0.061875 6.0225 -0.12375 9.125 -0.1875 C10.06230957 -0.21481201 10.99961914 -0.24212402 11.96533203 -0.27026367 C17.07376811 -0.32085841 20.58715956 0.13165372 25 3 C27.9019952 6.38566107 28.58652311 9.53306831 28.42578125 14 C27.6483437 17.65181676 25.67388228 19.45048434 23 22 C20.11734851 22.96088383 18.32337729 23.11670941 15.33203125 23.09765625 C14.52741455 23.09515869 13.72279785 23.09266113 12.89379883 23.09008789 C11.36855591 23.07643188 11.36855591 23.07643188 9.8125 23.0625 C4.9553125 23.0315625 4.9553125 23.0315625 0 23 C0 15.41 0 7.82 0 0 Z " fill="#FCFEFD" transform="translate(529,406)"/>
<path d="M0 0 C2.84625 -0.061875 5.6925 -0.12375 8.625 -0.1875 C9.51010254 -0.21481201 10.39520508 -0.24212402 11.30712891 -0.27026367 C16.28873979 -0.32240072 19.70257248 0.19905726 24 3 C27.12285813 7.23096908 27.47318949 10.82610823 26.71484375 15.87890625 C25.45860949 19.60642101 23.26951482 20.90751051 20 23 C17.29283758 23.90238747 15.76223232 24.11851302 12.98828125 24.09765625 C11.96408081 24.09390991 11.96408081 24.09390991 10.91918945 24.09008789 C10.05898193 24.08098389 9.19877441 24.07187988 8.3125 24.0625 C4.1978125 24.0315625 4.1978125 24.0315625 0 24 C0 16.08 0 8.16 0 0 Z " fill="#FAFDFB" transform="translate(600,621)"/>
<path d="M0 0 C0.65202896 -0.00175232 1.30405792 -0.00350464 1.97584534 -0.00531006 C4.14082465 -0.00972751 6.30572291 -0.00679098 8.47070312 -0.00341797 C9.96903499 -0.00409104 11.46736675 -0.00506109 12.96569824 -0.00631714 C16.10979245 -0.00779397 19.2538583 -0.00564005 22.39794922 -0.00097656 C26.43681851 0.00472073 30.47562137 0.00144164 34.51448822 -0.00454903 C37.60960393 -0.00815505 40.70470377 -0.00701586 43.79981995 -0.00442123 C45.28943388 -0.00375208 46.77904923 -0.00457999 48.2686615 -0.00690079 C50.34711548 -0.009428 52.42546044 -0.0055858 54.50390625 0 C56.28142273 0.00119339 56.28142273 0.00119339 58.09484863 0.00241089 C60.75195312 0.12939453 60.75195312 0.12939453 61.75195312 1.12939453 C61.82508879 3.65988855 61.8444284 6.1624429 61.81445312 8.69189453 C61.80994141 9.4028125 61.80542969 10.11373047 61.80078125 10.84619141 C61.78896177 12.60729466 61.77102576 14.36835489 61.75195312 16.12939453 C60.76195312 16.12939453 59.77195312 16.12939453 58.75195312 16.12939453 C59.08195313 15.79939453 59.41195312 15.46939453 59.75195312 15.12939453 C59.75195312 10.83939453 59.75195312 6.54939453 59.75195312 2.12939453 C38.30195312 1.79939453 16.85195313 1.46939453 -5.24804688 1.12939453 C-5.24804688 5.74939453 -5.24804688 10.36939453 -5.24804688 15.12939453 C-2.66669922 15.11199219 -2.66669922 15.11199219 -0.03320312 15.09423828 C2.20768121 15.0848622 4.44856672 15.0757618 6.68945312 15.06689453 C7.82576172 15.05851562 8.96207031 15.05013672 10.1328125 15.04150391 C11.21240234 15.03828125 12.29199219 15.03505859 13.40429688 15.03173828 C14.90464478 15.02388306 14.90464478 15.02388306 16.43530273 15.01586914 C18.75195312 15.12939453 18.75195312 15.12939453 19.75195312 16.12939453 C19.84620908 18.27683002 19.8693796 20.42740479 19.86547852 22.5769043 C19.86562454 23.25004669 19.86577057 23.92318909 19.86592102 24.61672974 C19.86522191 26.85145237 19.85742965 29.08609263 19.84960938 31.32080078 C19.84774519 32.86636815 19.84632129 34.4119361 19.84532166 35.95750427 C19.84149653 40.0329653 19.83166629 44.1083909 19.82061768 48.18383789 C19.81040344 52.33951335 19.80582401 56.49519452 19.80078125 60.65087891 C19.79004401 68.81040221 19.77244726 76.96988989 19.75195312 85.12939453 C24.70195313 84.79939453 29.65195312 84.46939453 34.75195312 84.12939453 C35.08195313 62.34939453 35.41195312 40.56939453 35.75195312 18.12939453 C36.08195313 18.12939453 36.41195312 18.12939453 36.75195312 18.12939453 C36.77507924 26.84783456 36.79286958 35.56626409 36.8037653 44.28472805 C36.80899354 48.33265195 36.81609011 52.38055494 36.82739258 56.4284668 C36.83822356 60.33175424 36.8442304 64.23502152 36.84683037 68.13832283 C36.84868424 69.630731 36.85230413 71.12313801 36.85768318 72.61553764 C36.86489643 74.69887593 36.86594395 76.78212984 36.86547852 78.86547852 C36.86769913 80.05350571 36.86991974 81.2415329 36.87220764 82.46556091 C36.75195312 85.12939453 36.75195312 85.12939453 35.75195312 86.12939453 C32.90860265 86.22926428 30.09498149 86.26817334 27.25195312 86.25439453 C26.05505859 86.26019531 26.05505859 86.26019531 24.83398438 86.26611328 C18.8785608 86.25600221 18.8785608 86.25600221 17.75195312 85.12939453 C17.65773572 83.01258136 17.63452551 80.89258695 17.63842773 78.77368164 C17.63828171 78.11029282 17.63813568 77.44690399 17.63798523 76.76341248 C17.63868432 74.56115498 17.64647648 72.35898108 17.65429688 70.15673828 C17.65616107 68.63359117 17.65758497 67.11044346 17.65858459 65.58729553 C17.66240966 61.57101802 17.67223984 57.55477646 17.68328857 53.53851318 C17.69350294 49.44316087 17.69808227 45.34780277 17.703125 41.25244141 C17.71386213 33.21140925 17.73093841 25.17040636 17.75195312 17.12939453 C16.66926147 17.13724976 16.66926147 17.13724976 15.56469727 17.14526367 C12.31462464 17.16596811 9.06456584 17.17903371 5.81445312 17.19189453 C4.10999023 17.20446289 4.10999023 17.20446289 2.37109375 17.21728516 C1.29150391 17.22050781 0.21191406 17.22373047 -0.90039062 17.22705078 C-2.40073853 17.23490601 -2.40073853 17.23490601 -3.93139648 17.24291992 C-6.24804688 17.12939453 -6.24804688 17.12939453 -7.24804688 16.12939453 C-7.3477972 13.61803349 -7.38686871 11.14036038 -7.37304688 8.62939453 C-7.37691406 7.92685547 -7.38078125 7.22431641 -7.38476562 6.50048828 C-7.37168351 -0.28912709 -6.59130753 0.00442528 0 0 Z " fill="#027C13" transform="translate(726.248046875,496.87060546875)"/>
<path d="M0 0 C3.13344322 1.56672161 3.27335095 4.11995564 4.3828125 7.37109375 C4.60194305 8.00862076 4.82107361 8.64614777 5.04684448 9.30299377 C5.5091577 10.65271268 5.96789492 12.00366091 6.42333984 13.35571289 C7.12184145 15.42812876 7.83140623 17.49648994 8.54296875 19.56445312 C12 29.69215392 12 29.69215392 12 32 C4.74 32 -2.52 32 -10 32 C-7.24573403 21.14495177 -3.59707613 10.59934496 0 0 Z " fill="#F8FCFA" transform="translate(685,626)"/>
<path d="M0 0 C0.99 0.495 0.99 0.495 2 1 C2 27.73 2 54.46 2 82 C6.95 82 11.9 82 17 82 C17 73.09 17 64.18 17 55 C17.33 55 17.66 55 18 55 C18 64.57 18 74.14 18 84 C15.215625 84.020625 12.43125 84.04125 9.5625 84.0625 C8.68408447 84.071604 7.80566895 84.08070801 6.90063477 84.09008789 C4.93354026 84.09723091 2.96646379 84.05031893 1 84 C-0.75439163 82.24560837 -0.11982963 79.94502544 -0.12442017 77.60829163 C-0.12082489 76.8357756 -0.11722961 76.06325958 -0.11352539 75.26733398 C-0.11367142 74.4576416 -0.11381744 73.64794922 -0.1139679 72.8137207 C-0.11326854 70.12448492 -0.1054751 67.43531751 -0.09765625 64.74609375 C-0.09579215 62.88664284 -0.09436821 61.02719144 -0.09336853 59.16773987 C-0.08954271 54.26370904 -0.07971188 49.35970764 -0.06866455 44.45568848 C-0.05845181 39.45548908 -0.05387121 34.45528494 -0.04882812 29.45507812 C-0.03808967 19.63670579 -0.02101248 9.81835534 0 0 Z " fill="#018217" transform="translate(581,606)"/>
<path d="M0 0 C1.29997925 0.00303635 1.29997925 0.00303635 2.6262207 0.00613403 C3.51027588 0.00517731 4.39433105 0.00422058 5.30517578 0.00323486 C7.178142 0.00255302 9.05111056 0.0044076 10.92407227 0.00857544 C13.80140458 0.01392364 16.67858078 0.0086306 19.5559082 0.00222778 C21.37101272 0.00288856 23.18611713 0.00416972 25.0012207 0.00613403 C25.86787354 0.0041098 26.73452637 0.00208557 27.62744141 0 C33.69877061 0.02399644 33.69877061 0.02399644 34.8137207 1.13894653 C34.88685637 3.66944055 34.90619597 6.1719949 34.8762207 8.70144653 C34.87170898 9.4123645 34.86719727 10.12328247 34.86254883 10.85574341 C34.85072934 12.61684667 34.83279333 14.37790689 34.8137207 16.13894653 C34.4837207 16.13894653 34.1537207 16.13894653 33.8137207 16.13894653 C33.8137207 11.51894653 33.8137207 6.89894653 33.8137207 2.13894653 C32.80994385 2.14418335 31.80616699 2.14942017 30.77197266 2.15481567 C27.03532814 2.17296393 23.29868749 2.1844144 19.56201172 2.19387817 C17.94709619 2.19889595 16.33218518 2.20571165 14.71728516 2.21438599 C12.39134605 2.22656368 10.06546721 2.23220048 7.73950195 2.23660278 C6.66264885 2.24434471 6.66264885 2.24434471 5.56404114 2.25224304 C1.75432023 2.252666 -1.40368292 1.89546581 -5.1862793 1.13894653 C-5.1862793 5.42894653 -5.1862793 9.71894653 -5.1862793 14.13894653 C1.7437207 14.13894653 8.6737207 14.13894653 15.8137207 14.13894653 C16.1437207 15.78894653 16.4737207 17.43894653 16.8137207 19.13894653 C16.4837207 18.14894653 16.1537207 17.15894653 15.8137207 16.13894653 C15.15251221 16.14418335 14.49130371 16.14942017 13.81005859 16.15481567 C10.83212219 16.17552309 7.85420089 16.18858666 4.8762207 16.20144653 C3.31484375 16.21401489 3.31484375 16.21401489 1.72192383 16.22683716 C0.73256836 16.23005981 -0.25678711 16.23328247 -1.27612305 16.23660278 C-2.65078735 16.24445801 -2.65078735 16.24445801 -4.05322266 16.25247192 C-6.1862793 16.13894653 -6.1862793 16.13894653 -7.1862793 15.13894653 C-7.28537232 12.80734598 -7.31598434 10.47264712 -7.3112793 8.13894653 C-7.31385742 6.86019653 -7.31643555 5.58144653 -7.3190918 4.26394653 C-7.08836999 -1.16480195 -4.86852036 0.01924243 0 0 Z " fill="#007F17" transform="translate(584.186279296875,534.8610534667969)"/>
<path d="M0 0 C0.66 0 1.32 0 2 0 C2.99 1.98 3.98 3.96 5 6 C10.94 6 16.88 6 23 6 C22.67 4.68 22.34 3.36 22 2 C23.32 3.32 24.64 4.64 26 6 C25.67 6.99 25.34 7.98 25 9 C21.77206203 9.23329086 18.54628768 9.37467674 15.3125 9.5 C14.40048828 9.56703125 13.48847656 9.6340625 12.54882812 9.703125 C9.81709939 9.78259347 7.6309826 9.75475787 5 9 C2.76529789 6.73864263 0 3.36589257 0 0 Z " fill="#04821D" transform="translate(553,467)"/>
<path d="M0 0 C1 3 1 3 0 6 C4.95 6 9.9 6 15 6 C15.33 6.66 15.66 7.32 16 8 C10.06 8 4.12 8 -2 8 C-1 1 -1 1 0 0 Z " fill="#027F15" transform="translate(647,682)"/>
<path d="M0 0 C0.33 0 0.66 0 1 0 C1 4.95 1 9.9 1 15 C-1.6666419 16.33332095 -3.16680303 15.67102033 -6 15 C-6 14.67 -6 14.34 -6 14 C-4.35 14 -2.7 14 -1 14 C-1.01160156 13.07316406 -1.02320313 12.14632812 -1.03515625 11.19140625 C-1.04417969 9.99386719 -1.05320312 8.79632812 -1.0625 7.5625 C-1.07410156 6.36753906 -1.08570313 5.17257812 -1.09765625 3.94140625 C-1 1 -1 1 0 0 Z " fill="#088B2A" transform="translate(562,639)"/>
<path d="M0 0 C0.66666667 2.66666667 1.33333333 5.33333333 2 8 C0.35 9.32 -1.3 10.64 -3 12 C-2.49202991 7.6822542 -1.80317221 3.96697886 0 0 Z " fill="#098522" transform="translate(683,402)"/>
<path d="M0 0 C-1.38530129 3.42717768 -2.67477227 4.7293493 -6 6.3125 C-6.70125 6.65925781 -7.4025 7.00601563 -8.125 7.36328125 C-9.053125 7.67845703 -9.053125 7.67845703 -10 8 C-10.66 7.67 -11.32 7.34 -12 7 C-10.3790787 5.82767315 -8.75313167 4.6622923 -7.125 3.5 C-6.22007812 2.8503125 -5.31515625 2.200625 -4.3828125 1.53125 C-2 0 -2 0 0 0 Z " fill="#048018" transform="translate(291,537)"/>
<path d="M0 0 C3.3734229 1.44575267 5.61595146 3.2049086 8 6 C8.75 8.25 8.75 8.25 9 10 C5.73991357 6.83047153 2.77762123 3.60062011 0 0 Z " fill="#138723" transform="translate(248,445)"/>
</svg>
